<svg xmlns="http://www.w3.org/2000/svg" xmlns:xlink="http://www.w3.org/1999/xlink" width="300" zoomAndPan="magnify" viewBox="0 0 224.87999 225" height="300" preserveAspectRatio="xMidYMid meet" version="1.2"><defs><clipPath id="e3aab14dc1"><path d="M 27 0.0585938 L 198 0.0585938 L 198 195 L 27 195 Z M 27 0.0585938 "/></clipPath><clipPath id="24fdf31239"><path d="M 0 170 L 224.761719 170 L 224.761719 224.9375 L 0 224.9375 Z M 0 170 "/></clipPath><clipPath id="89a73c2a0c"><path d="M 54.613281 26.957031 L 170.050781 26.957031 L 170.050781 142.394531 L 54.613281 142.394531 Z M 54.613281 26.957031 "/></clipPath></defs><g id="466904759f"><g clip-rule="nonzero" clip-path="url(#e3aab14dc1)"><path style=" stroke:none;fill-rule:nonzero;fill:#000000;fill-opacity:1;" d="M 147.664062 162.042969 C 149.496094 161.203125 151.300781 160.296875 153.070312 159.324219 C 154.84375 158.355469 156.578125 157.324219 158.273438 156.230469 C 159.972656 155.136719 161.628906 153.984375 163.242188 152.769531 C 164.859375 151.558594 166.429688 150.292969 167.953125 148.96875 C 169.476562 147.644531 170.953125 146.269531 172.378906 144.839844 C 173.808594 143.414062 175.183594 141.933594 176.503906 140.410156 C 177.824219 138.882812 179.089844 137.3125 180.300781 135.695312 C 181.511719 134.078125 182.664062 132.421875 183.753906 130.722656 C 184.847656 129.023438 185.875 127.289062 186.84375 125.515625 C 187.8125 123.746094 188.714844 121.941406 189.554688 120.105469 C 190.394531 118.269531 191.167969 116.402344 191.875 114.511719 C 192.582031 112.621094 193.222656 110.707031 193.792969 108.769531 C 194.363281 106.832031 194.867188 104.878906 195.296875 102.90625 C 195.730469 100.933594 196.089844 98.949219 196.378906 96.949219 C 196.671875 94.953125 196.890625 92.945312 197.035156 90.933594 C 197.183594 88.917969 197.257812 86.902344 197.261719 84.882812 C 197.261719 38.109375 159.214844 0.0585938 112.441406 0.0585938 C 65.667969 0.0585938 27.617188 38.109375 27.617188 84.882812 C 27.621094 86.902344 27.695312 88.917969 27.84375 90.933594 C 27.992188 92.945312 28.210938 94.953125 28.5 96.949219 C 28.789062 98.949219 29.152344 100.933594 29.582031 102.90625 C 30.015625 104.878906 30.515625 106.832031 31.085938 108.769531 C 31.65625 110.707031 32.296875 112.621094 33.003906 114.511719 C 33.710938 116.402344 34.484375 118.269531 35.324219 120.105469 C 36.164062 121.941406 37.066406 123.746094 38.035156 125.515625 C 39.003906 127.289062 40.035156 129.023438 41.125 130.722656 C 42.21875 132.421875 43.367188 134.078125 44.578125 135.695312 C 45.789062 137.3125 47.054688 138.882812 48.375 140.410156 C 49.699219 141.933594 51.070312 143.414062 52.5 144.839844 C 53.925781 146.269531 55.402344 147.644531 56.925781 148.96875 C 58.453125 150.292969 60.023438 151.558594 61.636719 152.769531 C 63.253906 153.984375 64.910156 155.136719 66.605469 156.230469 C 68.304688 157.324219 70.039062 158.355469 71.808594 159.324219 C 73.578125 160.296875 75.382812 161.203125 77.21875 162.042969 C 77.433594 162.144531 77.625 162.277344 77.792969 162.445312 L 108.644531 193.359375 C 109.183594 193.8125 109.785156 194.15625 110.449219 194.390625 C 111.117188 194.628906 111.800781 194.742188 112.503906 194.734375 C 113.210938 194.726562 113.894531 194.597656 114.550781 194.34375 C 115.210938 194.09375 115.804688 193.734375 116.335938 193.269531 L 147.089844 162.445312 C 147.257812 162.277344 147.449219 162.144531 147.664062 162.042969 Z M 112.441406 157.871094 C 72.195312 157.871094 39.453125 125.128906 39.453125 84.882812 C 39.453125 44.636719 72.195312 11.894531 112.441406 11.894531 C 152.6875 11.894531 185.425781 44.636719 185.425781 84.882812 C 185.425781 125.128906 152.6875 157.871094 112.441406 157.871094 Z M 112.441406 157.871094 "/></g><path style=" stroke:none;fill-rule:nonzero;fill:#000000;fill-opacity:1;" d="M 82.851562 120.390625 C 82.851562 120.777344 82.890625 121.164062 82.964844 121.542969 C 83.042969 121.925781 83.152344 122.296875 83.300781 122.652344 C 83.453125 123.011719 83.632812 123.355469 83.851562 123.675781 C 84.066406 124 84.3125 124.296875 84.585938 124.574219 C 84.859375 124.847656 85.160156 125.09375 85.480469 125.308594 C 85.804688 125.523438 86.144531 125.707031 86.503906 125.855469 C 86.863281 126.003906 87.234375 126.117188 87.613281 126.195312 C 87.996094 126.269531 88.378906 126.308594 88.769531 126.308594 L 136.113281 126.308594 C 136.5 126.308594 136.882812 126.269531 137.265625 126.195312 C 137.648438 126.117188 138.015625 126.003906 138.375 125.855469 C 138.734375 125.707031 139.074219 125.523438 139.398438 125.308594 C 139.722656 125.09375 140.019531 124.847656 140.292969 124.574219 C 140.570312 124.296875 140.8125 124 141.03125 123.675781 C 141.246094 123.355469 141.429688 123.011719 141.578125 122.652344 C 141.726562 122.296875 141.839844 121.925781 141.914062 121.542969 C 141.992188 121.164062 142.027344 120.777344 142.03125 120.390625 L 142.03125 110.527344 L 82.851562 110.527344 Z M 82.851562 120.390625 "/><path style=" stroke:none;fill-rule:nonzero;fill:#000000;fill-opacity:1;" d="M 112.441406 15.839844 C 74.371094 15.839844 43.398438 46.8125 43.398438 84.882812 C 43.398438 122.953125 74.371094 153.925781 112.441406 153.925781 C 150.507812 153.925781 181.480469 122.953125 181.480469 84.882812 C 181.480469 46.8125 150.511719 15.839844 112.441406 15.839844 Z M 145.976562 89.980469 L 145.976562 120.390625 C 145.972656 121.039062 145.910156 121.679688 145.785156 122.3125 C 145.65625 122.949219 145.46875 123.566406 145.222656 124.164062 C 144.972656 124.761719 144.667969 125.328125 144.308594 125.867188 C 143.949219 126.40625 143.539062 126.902344 143.082031 127.363281 C 142.625 127.820312 142.128906 128.230469 141.589844 128.589844 C 141.050781 128.949219 140.484375 129.253906 139.882812 129.5 C 139.285156 129.75 138.671875 129.9375 138.035156 130.0625 C 137.398438 130.1875 136.757812 130.253906 136.113281 130.253906 L 88.769531 130.253906 C 88.121094 130.253906 87.480469 130.1875 86.84375 130.0625 C 86.210938 129.9375 85.59375 129.75 84.996094 129.5 C 84.398438 129.253906 83.828125 128.949219 83.289062 128.589844 C 82.753906 128.230469 82.253906 127.820312 81.796875 127.363281 C 81.339844 126.902344 80.929688 126.40625 80.570312 125.867188 C 80.210938 125.328125 79.90625 124.761719 79.660156 124.164062 C 79.410156 123.566406 79.222656 122.949219 79.097656 122.3125 C 78.96875 121.679688 78.90625 121.039062 78.90625 120.390625 L 78.90625 89.980469 C 77.65625 89.621094 76.449219 89.152344 75.285156 88.578125 C 74.121094 88 73.015625 87.328125 71.972656 86.554688 C 70.929688 85.78125 69.960938 84.921875 69.070312 83.976562 C 68.179688 83.03125 67.378906 82.015625 66.671875 80.925781 C 65.960938 79.839844 65.355469 78.695312 64.851562 77.5 C 64.34375 76.300781 63.949219 75.070312 63.664062 73.800781 C 63.378906 72.535156 63.210938 71.253906 63.152344 69.953125 C 63.097656 68.65625 63.15625 67.363281 63.332031 66.078125 C 64.8125 53.199219 79.085938 44.148438 91.394531 48.449219 C 91.660156 47.265625 92.027344 46.109375 92.488281 44.984375 C 92.949219 43.863281 93.503906 42.785156 94.148438 41.753906 C 94.792969 40.722656 95.519531 39.753906 96.328125 38.847656 C 97.136719 37.9375 98.015625 37.105469 98.964844 36.347656 C 99.914062 35.585938 100.921875 34.914062 101.984375 34.324219 C 103.050781 33.734375 104.15625 33.238281 105.300781 32.835938 C 106.449219 32.433594 107.621094 32.132812 108.820312 31.925781 C 110.019531 31.722656 111.226562 31.621094 112.441406 31.621094 C 113.65625 31.621094 114.863281 31.722656 116.0625 31.925781 C 117.261719 32.132812 118.433594 32.433594 119.582031 32.835938 C 120.726562 33.238281 121.832031 33.734375 122.894531 34.324219 C 123.960938 34.914062 124.964844 35.585938 125.914062 36.347656 C 126.863281 37.105469 127.742188 37.9375 128.550781 38.847656 C 129.359375 39.753906 130.085938 40.722656 130.734375 41.753906 C 131.378906 42.785156 131.929688 43.863281 132.394531 44.984375 C 132.855469 46.109375 133.222656 47.265625 133.488281 48.449219 C 145.800781 44.152344 160.070312 53.203125 161.550781 66.078125 C 161.722656 67.363281 161.785156 68.65625 161.726562 69.957031 C 161.671875 71.253906 161.5 72.535156 161.214844 73.804688 C 160.929688 75.070312 160.535156 76.300781 160.03125 77.5 C 159.527344 78.695312 158.917969 79.839844 158.210938 80.925781 C 157.5 82.015625 156.699219 83.03125 155.808594 83.976562 C 154.917969 84.921875 153.953125 85.78125 152.90625 86.554688 C 151.863281 87.328125 150.757812 88 149.59375 88.578125 C 148.429688 89.152344 147.222656 89.621094 145.976562 89.980469 Z M 145.976562 89.980469 "/><path style=" stroke:none;fill-rule:nonzero;fill:#000000;fill-opacity:1;" d="M 144.359375 51.886719 C 142.421875 51.394531 140.460938 51.238281 138.46875 51.421875 C 136.476562 51.605469 134.574219 52.113281 132.757812 52.957031 C 132.617188 53.019531 132.46875 53.0625 132.316406 53.089844 C 132.164062 53.121094 132.011719 53.128906 131.855469 53.121094 C 131.703125 53.113281 131.550781 53.089844 131.402344 53.046875 C 131.25 53.003906 131.109375 52.941406 130.976562 52.867188 C 130.839844 52.789062 130.714844 52.695312 130.601562 52.589844 C 130.488281 52.484375 130.390625 52.367188 130.304688 52.238281 C 130.21875 52.109375 130.148438 51.972656 130.09375 51.828125 C 130.039062 51.679688 130.003906 51.53125 129.984375 51.378906 C 129.878906 50.328125 129.679688 49.300781 129.386719 48.289062 C 129.097656 47.277344 128.714844 46.300781 128.25 45.355469 C 127.78125 44.414062 127.234375 43.519531 126.609375 42.675781 C 125.980469 41.828125 125.28125 41.046875 124.515625 40.328125 C 123.746094 39.605469 122.921875 38.960938 122.035156 38.390625 C 121.152344 37.816406 120.226562 37.328125 119.253906 36.925781 C 118.28125 36.519531 117.28125 36.203125 116.253906 35.980469 C 115.226562 35.753906 114.1875 35.621094 113.132812 35.582031 C 112.082031 35.542969 111.035156 35.597656 109.992188 35.746094 C 108.953125 35.894531 107.929688 36.136719 106.933594 36.46875 C 105.933594 36.800781 104.972656 37.21875 104.046875 37.722656 C 103.125 38.226562 102.253906 38.808594 101.433594 39.472656 C 100.613281 40.132812 99.859375 40.859375 99.171875 41.65625 C 98.484375 42.453125 97.871094 43.304688 97.335938 44.210938 C 96.800781 45.117188 96.351562 46.0625 95.984375 47.050781 C 95.617188 48.035156 95.34375 49.046875 95.160156 50.085938 C 96.011719 50.546875 96.832031 51.066406 97.613281 51.636719 C 98.398438 52.207031 99.140625 52.832031 99.839844 53.503906 C 100.539062 54.171875 101.191406 54.890625 101.796875 55.648438 C 102.398438 56.40625 102.949219 57.203125 103.449219 58.035156 C 103.945312 58.867188 104.386719 59.730469 104.769531 60.621094 C 105.148438 61.515625 105.472656 62.425781 105.730469 63.363281 C 105.988281 64.296875 106.1875 65.246094 106.320312 66.207031 C 106.453125 67.167969 106.519531 68.132812 106.523438 69.101562 C 106.523438 69.363281 106.472656 69.617188 106.371094 69.855469 C 106.273438 70.097656 106.128906 70.3125 105.945312 70.496094 C 105.757812 70.683594 105.546875 70.824219 105.304688 70.925781 C 105.0625 71.023438 104.8125 71.074219 104.550781 71.074219 C 104.289062 71.074219 104.035156 71.023438 103.792969 70.925781 C 103.554688 70.824219 103.339844 70.683594 103.15625 70.496094 C 102.96875 70.3125 102.828125 70.097656 102.726562 69.855469 C 102.625 69.617188 102.578125 69.363281 102.578125 69.101562 C 102.859375 57.894531 91.324219 49.035156 80.519531 51.886719 C 73.558594 53.726562 68.195312 59.550781 67.238281 66.609375 C 67.085938 67.71875 67.039062 68.832031 67.097656 69.949219 C 67.15625 71.066406 67.316406 72.167969 67.582031 73.257812 C 67.847656 74.34375 68.210938 75.398438 68.675781 76.417969 C 69.140625 77.4375 69.695312 78.402344 70.339844 79.316406 C 70.984375 80.230469 71.710938 81.078125 72.515625 81.855469 C 73.320312 82.632812 74.1875 83.332031 75.125 83.945312 C 76.058594 84.558594 77.042969 85.082031 78.078125 85.511719 C 79.113281 85.941406 80.175781 86.269531 81.273438 86.496094 C 81.496094 86.542969 81.703125 86.625 81.898438 86.742188 C 82.09375 86.859375 82.261719 87.007812 82.40625 87.183594 C 82.550781 87.359375 82.660156 87.554688 82.738281 87.769531 C 82.8125 87.984375 82.851562 88.207031 82.851562 88.433594 L 82.851562 106.582031 L 142.03125 106.582031 L 142.03125 88.433594 C 142.03125 88.207031 142.066406 87.984375 142.144531 87.773438 C 142.21875 87.558594 142.332031 87.363281 142.472656 87.1875 C 142.617188 87.011719 142.789062 86.863281 142.980469 86.746094 C 143.175781 86.628906 143.386719 86.546875 143.609375 86.5 C 144.585938 86.300781 145.542969 86.019531 146.472656 85.660156 C 147.40625 85.300781 148.300781 84.863281 149.160156 84.351562 C 150.019531 83.839844 150.828125 83.257812 151.589844 82.609375 C 152.347656 81.960938 153.046875 81.253906 153.6875 80.488281 C 154.332031 79.71875 154.902344 78.90625 155.40625 78.039062 C 155.90625 77.175781 156.335938 76.277344 156.6875 75.339844 C 157.035156 74.40625 157.308594 73.449219 157.496094 72.464844 C 157.683594 71.484375 157.789062 70.496094 157.8125 69.496094 C 157.832031 68.496094 157.769531 67.503906 157.625 66.515625 C 157.480469 65.523438 157.25 64.554688 156.941406 63.605469 C 156.628906 62.65625 156.242188 61.738281 155.777344 60.855469 C 155.3125 59.96875 154.777344 59.128906 154.171875 58.335938 C 153.5625 57.542969 152.894531 56.804688 152.164062 56.121094 C 151.433594 55.441406 150.648438 54.828125 149.8125 54.277344 C 148.976562 53.730469 148.101562 53.253906 147.1875 52.855469 C 146.273438 52.453125 145.328125 52.132812 144.359375 51.890625 Z M 144.359375 51.886719 "/><g clip-rule="nonzero" clip-path="url(#24fdf31239)"><path style=" stroke:none;fill-rule:nonzero;fill:#000000;fill-opacity:1;" d="M 144.546875 170.574219 L 133.117188 182.027344 C 149.742188 182.847656 193.316406 186.074219 193.316406 197.324219 C 193.316406 208.902344 144.949219 213.105469 112.441406 213.105469 C 79.929688 213.105469 31.5625 208.902344 31.5625 197.324219 C 31.5625 186.074219 75.136719 182.847656 91.765625 182.027344 L 80.332031 170.574219 C 28.53125 173.441406 0 182.925781 0 197.324219 C 0 214.617188 42.035156 224.941406 112.441406 224.941406 C 182.847656 224.941406 224.878906 214.617188 224.878906 197.324219 C 224.878906 182.925781 196.347656 173.4375 144.546875 170.574219 Z M 144.546875 170.574219 "/></g><path style=" stroke:none;fill-rule:nonzero;fill:#000000;fill-opacity:1;" d="M 105.949219 196.238281 L 95.542969 185.8125 C 53.152344 187.4375 35.507812 194.089844 35.507812 197.324219 C 35.507812 201.453125 61.929688 209.160156 112.441406 209.160156 C 162.949219 209.160156 189.371094 201.453125 189.371094 197.324219 C 189.371094 194.089844 171.730469 187.4375 129.339844 185.816406 L 119.027344 196.144531 C 118.582031 196.542969 118.105469 196.894531 117.59375 197.207031 C 117.085938 197.515625 116.550781 197.777344 115.996094 197.992188 C 115.4375 198.207031 114.867188 198.371094 114.28125 198.480469 C 113.695312 198.59375 113.101562 198.648438 112.503906 198.652344 C 111.910156 198.65625 111.316406 198.609375 110.730469 198.507812 C 110.140625 198.402344 109.566406 198.25 109.007812 198.042969 C 108.445312 197.835938 107.910156 197.582031 107.394531 197.277344 C 106.882812 196.976562 106.398438 196.628906 105.949219 196.238281 Z M 105.949219 196.238281 "/><g clip-rule="nonzero" clip-path="url(#89a73c2a0c)"><path style=" stroke:none;fill-rule:nonzero;fill:#000000;fill-opacity:1;" d="M 170.050781 84.675781 C 170.050781 86.566406 169.960938 88.453125 169.773438 90.335938 C 169.589844 92.214844 169.3125 94.082031 168.941406 95.9375 C 168.574219 97.792969 168.117188 99.621094 167.566406 101.429688 C 167.019531 103.242188 166.382812 105.019531 165.660156 106.765625 C 164.933594 108.511719 164.128906 110.21875 163.238281 111.886719 C 162.34375 113.550781 161.375 115.171875 160.324219 116.742188 C 159.273438 118.316406 158.148438 119.832031 156.949219 121.292969 C 155.75 122.753906 154.484375 124.152344 153.148438 125.492188 C 151.808594 126.828125 150.410156 128.09375 148.949219 129.292969 C 147.488281 130.492188 145.972656 131.617188 144.398438 132.667969 C 142.828125 133.71875 141.207031 134.6875 139.542969 135.582031 C 137.875 136.472656 136.167969 137.277344 134.421875 138.003906 C 132.675781 138.726562 130.898438 139.363281 129.085938 139.910156 C 127.277344 140.460938 125.449219 140.917969 123.59375 141.285156 C 121.738281 141.65625 119.871094 141.933594 117.992188 142.117188 C 116.109375 142.304688 114.222656 142.394531 112.332031 142.394531 C 110.441406 142.394531 108.558594 142.304688 106.675781 142.117188 C 104.792969 141.933594 102.925781 141.65625 101.074219 141.285156 C 99.21875 140.917969 97.386719 140.460938 95.578125 139.910156 C 93.769531 139.363281 91.992188 138.726562 90.246094 138.003906 C 88.5 137.277344 86.792969 136.472656 85.125 135.582031 C 83.457031 134.6875 81.835938 133.71875 80.265625 132.667969 C 78.695312 131.617188 77.175781 130.492188 75.714844 129.292969 C 74.253906 128.09375 72.855469 126.828125 71.519531 125.492188 C 70.183594 124.152344 68.914062 122.753906 67.714844 121.292969 C 66.515625 119.832031 65.390625 118.316406 64.339844 116.742188 C 63.289062 115.171875 62.320312 113.550781 61.429688 111.886719 C 60.539062 110.21875 59.730469 108.511719 59.007812 106.765625 C 58.285156 105.019531 57.648438 103.242188 57.097656 101.429688 C 56.550781 99.621094 56.089844 97.792969 55.722656 95.9375 C 55.355469 94.082031 55.078125 92.214844 54.890625 90.335938 C 54.707031 88.453125 54.613281 86.566406 54.613281 84.675781 C 54.613281 82.785156 54.707031 80.902344 54.890625 79.019531 C 55.078125 77.136719 55.355469 75.269531 55.722656 73.417969 C 56.089844 71.5625 56.550781 69.730469 57.097656 67.921875 C 57.648438 66.113281 58.285156 64.335938 59.007812 62.589844 C 59.730469 60.84375 60.539062 59.136719 61.429688 57.46875 C 62.320312 55.800781 63.289062 54.179688 64.339844 52.609375 C 65.390625 51.039062 66.515625 49.519531 67.714844 48.058594 C 68.914062 46.597656 70.183594 45.199219 71.519531 43.863281 C 72.855469 42.527344 74.253906 41.257812 75.714844 40.058594 C 77.175781 38.859375 78.695312 37.734375 80.265625 36.683594 C 81.835938 35.632812 83.457031 34.664062 85.125 33.773438 C 86.792969 32.882812 88.5 32.074219 90.246094 31.351562 C 91.992188 30.628906 93.769531 29.992188 95.578125 29.441406 C 97.386719 28.894531 99.21875 28.433594 101.074219 28.066406 C 102.925781 27.699219 104.792969 27.421875 106.675781 27.234375 C 108.558594 27.050781 110.441406 26.957031 112.332031 26.957031 C 114.222656 26.957031 116.109375 27.050781 117.992188 27.234375 C 119.871094 27.421875 121.738281 27.699219 123.59375 28.066406 C 125.449219 28.433594 127.277344 28.894531 129.089844 29.441406 C 130.898438 29.992188 132.675781 30.628906 134.421875 31.351562 C 136.167969 32.074219 137.875 32.882812 139.542969 33.773438 C 141.207031 34.664062 142.828125 35.632812 144.398438 36.683594 C 145.972656 37.734375 147.488281 38.859375 148.949219 40.058594 C 150.410156 41.257812 151.808594 42.527344 153.148438 43.863281 C 154.484375 45.199219 155.75 46.597656 156.949219 48.058594 C 158.148438 49.519531 159.273438 51.039062 160.324219 52.609375 C 161.375 54.179688 162.34375 55.800781 163.238281 57.46875 C 164.128906 59.136719 164.933594 60.84375 165.660156 62.589844 C 166.382812 64.335938 167.019531 66.113281 167.566406 67.921875 C 168.117188 69.730469 168.574219 71.5625 168.941406 73.417969 C 169.3125 75.269531 169.589844 77.136719 169.773438 79.019531 C 169.960938 80.902344 170.050781 82.785156 170.050781 84.675781 Z M 170.050781 84.675781 "/></g><path style="fill:none;stroke-width:1;stroke-linecap:round;stroke-linejoin:miter;stroke:#ffffff;stroke-opacity:1;stroke-miterlimit:4;" d="M 0.499638 0.500872 L 47.853923 0.499062 " transform="matrix(0.445964,-0.61247,0.61247,0.445964,82.333692,96.086549)"/><g style="fill:#ffffff;fill-opacity:1;"><g transform="translate(51.725005, 80.791497)"><path style="stroke:none" d="M 11.234375 0 L 10.140625 0 L 6.171875 -5.359375 C 6.085938 -5.347656 6.003906 -5.34375 5.921875 -5.34375 C 5.835938 -5.34375 5.742188 -5.34375 5.640625 -5.34375 L 2.171875 -5.34375 L 2.171875 0 L 1.21875 0 L 1.21875 -14.21875 L 5.640625 -14.21875 C 6.710938 -14.21875 7.613281 -14.015625 8.34375 -13.609375 C 9.082031 -13.210938 9.640625 -12.679688 10.015625 -12.015625 C 10.390625 -11.359375 10.578125 -10.617188 10.578125 -9.796875 C 10.578125 -8.734375 10.285156 -7.816406 9.703125 -7.046875 C 9.128906 -6.273438 8.28125 -5.757812 7.15625 -5.5 Z M 2.171875 -6.234375 L 5.6875 -6.234375 C 6.894531 -6.234375 7.851562 -6.550781 8.5625 -7.1875 C 9.269531 -7.820312 9.625 -8.691406 9.625 -9.796875 C 9.625 -10.898438 9.269531 -11.757812 8.5625 -12.375 C 7.851562 -13 6.894531 -13.3125 5.6875 -13.3125 L 2.171875 -13.3125 Z M 2.171875 -6.234375 "/></g></g><g style="fill:#ffffff;fill-opacity:1;"><g transform="translate(72.435099, 80.791497)"><path style="stroke:none" d="M 2.171875 -0.921875 L 9.359375 -0.921875 L 9.359375 0 L 1.21875 0 L 1.21875 -14.21875 L 9.1875 -14.21875 L 9.1875 -13.3125 L 2.171875 -13.3125 L 2.171875 -7.59375 L 7.71875 -7.59375 L 7.71875 -6.6875 L 2.171875 -6.6875 Z M 2.171875 -0.921875 "/></g></g><g style="fill:#ffffff;fill-opacity:1;"><g transform="translate(82.909842, 107.085538)"><path style="stroke:none" d="M 3.09375 -1.09375 L 4.640625 -4.640625 L 5.359375 -4.640625 L 5.625 0 L 4.90625 0 L 4.71875 -3.984375 L 4.6875 -3.984375 L 2.921875 0 L 2.828125 0 L 1.09375 -3.828125 L 1.078125 -3.828125 L 0.875 0 L 0.578125 0 L 0.828125 -4.640625 L 1.484375 -4.640625 Z M 3.09375 -1.09375 "/></g></g><g style="fill:#ffffff;fill-opacity:1;"><g transform="translate(94.73292, 107.085538)"><path style="stroke:none" d="M 0.625 0 L 0.625 -4.640625 L 3.4375 -4.640625 L 3.359375 -4.171875 L 2.0625 -4.375 C 1.832031 -4.375 1.582031 -4.335938 1.3125 -4.265625 L 1.3125 -2.5625 L 2.859375 -2.5625 L 2.859375 -2.296875 L 1.3125 -2.296875 L 1.3125 -0.25 L 3.484375 -0.46875 L 3.40625 0 Z M 0.625 0 "/></g></g><g style="fill:#ffffff;fill-opacity:1;"><g transform="translate(104.266975, 107.085538)"><path style="stroke:none" d="M 0.625 0 L 0.625 -4.640625 L 1.953125 -4.640625 C 2.503906 -4.640625 3 -4.519531 3.4375 -4.28125 C 3.675781 -4.164062 3.882812 -4.015625 4.0625 -3.828125 C 4.238281 -3.648438 4.378906 -3.414062 4.484375 -3.125 C 4.597656 -2.84375 4.65625 -2.53125 4.65625 -2.1875 C 4.65625 -1.695312 4.53125 -1.28125 4.28125 -0.9375 C 3.832031 -0.3125 3.101562 0 2.09375 0 Z M 1.953125 -0.234375 C 2.535156 -0.234375 3.003906 -0.40625 3.359375 -0.75 C 3.722656 -1.101562 3.90625 -1.617188 3.90625 -2.296875 C 3.90625 -2.828125 3.765625 -3.273438 3.484375 -3.640625 C 3.203125 -4.015625 2.832031 -4.257812 2.375 -4.375 C 1.96875 -4.375 1.613281 -4.328125 1.3125 -4.234375 L 1.3125 -0.296875 C 1.46875 -0.253906 1.679688 -0.234375 1.953125 -0.234375 Z M 1.953125 -0.234375 "/></g></g><g style="fill:#ffffff;fill-opacity:1;"><g transform="translate(114.823042, 107.085538)"><path style="stroke:none" d=""/></g></g><g style="fill:#ffffff;fill-opacity:1;"><g transform="translate(122.17307, 107.085538)"><path style="stroke:none" d="M 1.140625 -3.828125 C 1.140625 -3.617188 1.21875 -3.425781 1.375 -3.25 C 1.53125 -3.082031 1.722656 -2.929688 1.953125 -2.796875 C 2.191406 -2.660156 2.425781 -2.523438 2.65625 -2.390625 C 2.882812 -2.253906 3.078125 -2.082031 3.234375 -1.875 C 3.398438 -1.675781 3.484375 -1.457031 3.484375 -1.21875 C 3.484375 -0.832031 3.335938 -0.519531 3.046875 -0.28125 C 2.765625 -0.0390625 2.382812 0.078125 1.90625 0.078125 C 1.425781 0.078125 0.953125 -0.0078125 0.484375 -0.1875 L 0.484375 -0.515625 C 0.960938 -0.273438 1.367188 -0.15625 1.703125 -0.15625 C 2.035156 -0.15625 2.296875 -0.238281 2.484375 -0.40625 C 2.671875 -0.570312 2.765625 -0.796875 2.765625 -1.078125 C 2.765625 -1.273438 2.6875 -1.453125 2.53125 -1.609375 C 2.375 -1.773438 2.1875 -1.914062 1.96875 -2.03125 C 1.75 -2.15625 1.53125 -2.28125 1.3125 -2.40625 C 1.09375 -2.53125 0.90625 -2.6875 0.75 -2.875 C 0.59375 -3.070312 0.515625 -3.304688 0.515625 -3.578125 C 0.515625 -3.859375 0.632812 -4.117188 0.875 -4.359375 C 1.125 -4.597656 1.492188 -4.71875 1.984375 -4.71875 C 2.296875 -4.71875 2.695312 -4.644531 3.1875 -4.5 L 3.109375 -4.03125 C 2.484375 -4.300781 1.945312 -4.4375 1.5 -4.4375 C 1.257812 -4.3125 1.140625 -4.109375 1.140625 -3.828125 Z M 1.140625 -3.828125 "/></g></g><g style="fill:#ffffff;fill-opacity:1;"><g transform="translate(131.665122, 107.085538)"><path style="stroke:none" d="M 3.75 -3.4375 C 3.75 -2.988281 3.582031 -2.644531 3.25 -2.40625 C 2.925781 -2.175781 2.476562 -2.0625 1.90625 -2.0625 L 1.3125 -2.0625 L 1.3125 0 L 0.625 0 L 0.625 -4.640625 L 2.140625 -4.640625 C 2.609375 -4.640625 2.992188 -4.53125 3.296875 -4.3125 C 3.597656 -4.09375 3.75 -3.800781 3.75 -3.4375 Z M 1.3125 -2.265625 L 1.9375 -2.265625 C 2.15625 -2.265625 2.34375 -2.304688 2.5 -2.390625 C 2.65625 -2.472656 2.765625 -2.582031 2.828125 -2.71875 C 2.960938 -2.945312 3.03125 -3.171875 3.03125 -3.390625 C 3.03125 -3.503906 3 -3.632812 2.9375 -3.78125 C 2.820312 -4.082031 2.59375 -4.28125 2.25 -4.375 C 1.914062 -4.375 1.601562 -4.335938 1.3125 -4.265625 Z M 1.3125 -2.265625 "/></g></g><g style="fill:#ffffff;fill-opacity:1;"><g transform="translate(141.087176, 107.085538)"><path style="stroke:none" d="M 0.0625 0 L 2.15625 -4.75 L 2.25 -4.75 L 4.328125 0 L 3.5625 0 L 3.046875 -1.265625 L 0.96875 -1.265625 L 0.453125 0 Z M 1.078125 -1.53125 L 2.9375 -1.53125 L 2.015625 -3.796875 Z M 1.078125 -1.53125 "/></g></g><g style="fill:#ffffff;fill-opacity:1;"><g transform="translate(104.386982, 95.583073)"><path style="stroke:none" d="M 2.171875 -0.921875 L 9 -0.921875 L 9 0 L 1.21875 0 L 1.21875 -14.21875 L 2.171875 -14.21875 Z M 2.171875 -0.921875 "/></g></g><g style="fill:#ffffff;fill-opacity:1;"><g transform="translate(123.065477, 95.583073)"><path style="stroke:none" d="M 6.171875 0.203125 C 5.242188 0.203125 4.398438 0 3.640625 -0.40625 C 2.890625 -0.820312 2.296875 -1.429688 1.859375 -2.234375 C 1.429688 -3.046875 1.21875 -4.039062 1.21875 -5.21875 L 1.21875 -14.21875 L 2.171875 -14.21875 L 2.171875 -5.234375 C 2.171875 -4.253906 2.34375 -3.425781 2.6875 -2.75 C 3.03125 -2.082031 3.503906 -1.578125 4.109375 -1.234375 C 4.710938 -0.898438 5.398438 -0.734375 6.171875 -0.734375 C 7.335938 -0.734375 8.296875 -1.109375 9.046875 -1.859375 C 9.796875 -2.617188 10.171875 -3.742188 10.171875 -5.234375 L 10.171875 -14.21875 L 11.125 -14.21875 L 11.125 -5.21875 C 11.125 -4.039062 10.90625 -3.046875 10.46875 -2.234375 C 10.039062 -1.429688 9.453125 -0.820312 8.703125 -0.40625 C 7.960938 0 7.117188 0.203125 6.171875 0.203125 Z M 6.171875 0.203125 "/></g></g><g style="fill:#ffffff;fill-opacity:1;"><g transform="translate(144.283523, 95.583073)"><path style="stroke:none" d="M 12.171875 0 L 11.015625 0 L 6.34375 -6.546875 L 1.671875 0 L 0.515625 0 L 5.765625 -7.359375 L 0.859375 -14.21875 L 2.015625 -14.21875 L 6.34375 -8.171875 L 10.671875 -14.21875 L 11.796875 -14.21875 L 6.90625 -7.359375 Z M 12.171875 0 "/></g></g><g style="fill:#ffffff;fill-opacity:1;"><g transform="translate(165.826623, 95.583073)"><path style="stroke:none" d="M 2.171875 -0.921875 L 9.359375 -0.921875 L 9.359375 0 L 1.21875 0 L 1.21875 -14.21875 L 9.1875 -14.21875 L 9.1875 -13.3125 L 2.171875 -13.3125 L 2.171875 -7.59375 L 7.71875 -7.59375 L 7.71875 -6.6875 L 2.171875 -6.6875 Z M 2.171875 -0.921875 "/></g></g></g></svg>